<?xml version="1.0" encoding="UTF-8" standalone="no"?>
<svg width="34px" height="21px" viewBox="0 0 34 21" version="1.1" xmlns="http://www.w3.org/2000/svg" xmlns:xlink="http://www.w3.org/1999/xlink">
    <!-- Generator: Sketch 49.3 (51167) - http://www.bohemiancoding.com/sketch -->
    <title>speedometer</title>
    <desc>Created with Sketch.</desc>
    <defs></defs>
    <g id="Page-1" stroke="none" stroke-width="1" fill="none" fill-rule="evenodd">
        <g id="Dashboard_HP" transform="translate(-321.000000, -193.000000)">
            <g id="speedometer" transform="translate(318.000000, 190.000000)">
                <path d="M19.804335,0 C30.7239502,0 39.6086699,8.86250798 39.6086699,19.7548241 L39.6086699,27.1628832 C39.6086699,27.6180673 39.238989,27.9860009 38.7834893,27.9860009 L0.825180624,27.9860009 C0.369680919,27.9860009 0,27.6180673 0,27.1628832 L0,19.7548241 C0,8.86250798 8.88471978,0 19.804335,0 Z" id="Fill-2417"></path>
                <path d="M30.3080591,9.27900552 C29.9854135,8.95798963 29.4630742,8.95798963 29.1412537,9.27900552 L21.4703747,16.928238 C20.9793922,16.6393237 20.4141435,16.4623534 19.804335,16.4623534 C17.9839865,16.4623534 16.5036125,17.9390265 16.5036125,19.7548241 C16.5036125,21.5706217 17.9839865,23.0472948 19.804335,23.0472948 C21.6246834,23.0472948 23.1050575,21.5706217 23.1050575,19.7548241 C23.1050575,19.1457171 22.9268185,18.5818815 22.6371801,18.0921264 L30.3080591,10.4428939 C30.6298796,10.121878 30.6298796,9.60084453 30.3080591,9.27900552 L30.3080591,9.27900552 Z M19.804335,21.4010595 C18.8941607,21.4010595 18.1539737,20.6627229 18.1539737,19.7548241 C18.1539737,18.8469253 18.8941607,18.1085888 19.804335,18.1085888 C20.7145092,18.1085888 21.4546962,18.8469253 21.4546962,19.7548241 C21.4546962,20.6627229 20.7145092,21.4010595 19.804335,21.4010595 L19.804335,21.4010595 Z" id="Fill-2408" fill="#676D7E"></path>
                <path d="M7.42662561,19.7548241 L4.12590312,19.7548241 C3.67040341,19.7548241 3.3007225,20.1227577 3.3007225,20.5779418 C3.3007225,21.0331259 3.67040341,21.4010595 4.12590312,21.4010595 L7.42662561,21.4010595 C7.88212532,21.4010595 8.25180624,21.0331259 8.25180624,20.5779418 C8.25180624,20.1227577 7.88212532,19.7548241 7.42662561,19.7548241" id="Fill-2409" fill="#676D7E"></path>
                <path d="M32.1820443,19.7548241 C31.7265446,19.7548241 31.3576889,20.1227577 31.3568637,20.5779418 C31.3568637,21.0323028 31.7257194,21.4010595 32.1820443,21.4010595 L35.4827668,21.4027057 C35.9382665,21.4027057 36.3079474,21.0347721 36.3079474,20.579588 C36.3087726,20.1252271 35.9390917,19.7564704 35.483592,19.7564704 L32.1828695,19.7548241 L32.1820443,19.7548241" id="Fill-2410" fill="#676D7E"></path>
                <path d="M30.476396,15.3453828 C30.6075997,15.6614599 30.9153921,15.8532464 31.2388629,15.8532464 C31.344486,15.8532464 31.4509343,15.8326684 31.5540819,15.7906894 L34.6039495,14.5313194 C35.0247916,14.3576416 35.2253105,13.8761177 35.0511974,13.4563277 C34.8770842,13.0365377 34.3943536,12.8365201 33.9726863,13.011021 L30.9236439,14.269568 C30.5019766,14.4432458 30.3022829,14.9247696 30.476396,15.3453828" id="Fill-2411" fill="#676D7E"></path>
                <path d="M24.2248276,9.10862016 C24.3279752,9.15142228 24.4352486,9.17200022 24.5400466,9.17200022 C24.8643426,9.17200022 25.1713097,8.9802138 25.3033386,8.6633135 L26.565865,5.6218937 C26.7408033,5.20128057 26.5411096,4.71975673 26.1194423,4.5460789 C25.6969498,4.37157796 25.2158695,4.57241867 25.0417564,4.99138556 L23.7784049,8.03362848 C23.6042917,8.45424161 23.8039855,8.93494233 24.2248276,9.10862016" id="Fill-2412" fill="#676D7E"></path>
                <path d="M19.804335,8.23117672 C20.2598347,8.23117672 20.6295156,7.86324312 20.6295156,7.40805905 L20.6295156,4.11558836 C20.6295156,3.66040429 20.2598347,3.29247069 19.804335,3.29247069 C19.3488353,3.29247069 18.9791543,3.66040429 18.9791543,4.11558836 L18.9791543,7.40805905 C18.9791543,7.86324312 19.3488353,8.23117672 19.804335,8.23117672" id="Fill-2413" fill="#676D7E"></path>
                <path d="M14.5677387,4.99138556 C14.3936256,4.57241867 13.9100698,4.37157796 13.4900528,4.5460789 C13.0692107,4.71975673 12.8686918,5.20128057 13.0436301,5.6218937 L14.3053313,8.6633135 C14.436535,8.9802138 14.7443274,9.17200022 15.0677982,9.17200022 C15.1734213,9.17200022 15.2798696,9.15142228 15.3830172,9.10862016 C15.8038593,8.93494233 16.0043782,8.45424161 15.8302651,8.03362848 L14.5677387,4.99138556" id="Fill-2414" fill="#676D7E"></path>
                <path d="M9.30308635,8.1134709 C8.98126591,7.79327812 8.45892657,7.792455 8.13628095,8.11264778 C7.81363533,8.43448679 7.81363533,8.95552027 8.13545577,9.27735928 L10.4674162,11.6076054 C10.6283264,11.7681134 10.8395727,11.8487789 11.0508189,11.8487789 C11.2620652,11.8487789 11.4724862,11.7681134 11.6342216,11.6084285 C11.9560421,11.2865895 11.9568672,10.765556 11.6350468,10.4428939 L9.30308635,8.1134709" id="Fill-2415" fill="#676D7E"></path>
                <path d="M8.68502607,14.269568 L5.63598366,13.0093748 C5.21431636,12.8332276 4.7315857,13.0340683 4.55747259,13.4546815 C4.38335947,13.8736484 4.58305318,14.3551722 5.00472048,14.5296732 L8.05293771,15.7906894 C8.15608529,15.8326684 8.26335877,15.8532464 8.36898189,15.8532464 C8.69245269,15.8532464 8.99941988,15.6614599 9.13144878,15.3453828 C9.30556189,14.9255928 9.10586818,14.4440689 8.68502607,14.269568" id="Fill-2416" fill="#676D7E"></path>
            </g>
        </g>
    </g>
</svg>