<?xml version="1.0" encoding="UTF-8" standalone="no"?>
<svg width="30px" height="30px" viewBox="0 0 30 30" version="1.1" xmlns="http://www.w3.org/2000/svg" xmlns:xlink="http://www.w3.org/1999/xlink">
    <!-- Generator: Sketch 49.3 (51167) - http://www.bohemiancoding.com/sketch -->
    <title>wheel</title>
    <desc>Created with Sketch.</desc>
    <defs></defs>
    <g id="Page-1" stroke="none" stroke-width="1" fill="none" fill-rule="evenodd">
        <g id="Dashboard_HP" transform="translate(-1066.000000, -246.000000)" fill="#676D7E" fill-rule="nonzero">
            <g id="Group-6" transform="translate(911.000000, 203.000000)">
                <g id="wheel" transform="translate(155.000000, 43.000000)">
                    <path d="M15,0 C6.71575,0 0,6.71575 0,15 C0,23.28425 6.71575,30 15,30 C23.28425,30 30,23.28425 30,15 C29.990625,6.719625 23.280375,0.009375 15,0 Z M15,29 C7.268,29 1,22.732 1,15 C1,7.268 7.268,1 15,1 C22.732,1 29,7.268 29,15 C28.9911875,22.7283125 22.7283125,28.9911875 15,29 Z" id="Shape"></path>
                    <path d="M15,1.97802198 C7.8081744,1.97802198 1.97802198,7.8081744 1.97802198,15 C1.97802198,22.1918256 7.8081744,28.021978 15,28.021978 C22.1918256,28.021978 28.021978,22.1918256 28.021978,15 C28.0139645,7.8114925 22.1885075,1.9860355 15,1.97802198 Z M26.5820478,11.7925866 L19.4845689,14.5427282 C19.4185199,13.9047765 19.2161158,13.288549 18.8910672,12.7356784 L26.2564983,10.7868893 C26.3797063,11.1154438 26.487388,11.4510101 26.5820478,11.7925866 Z M15,2.9797126 C19.6437125,2.98428281 23.8705339,5.65998626 25.8613314,9.85531699 L18.2384658,11.872221 C16.5207542,10.0836398 13.6783944,10.0262305 11.8898132,11.743942 C11.8461771,11.7858252 11.8034174,11.8285849 11.7615342,11.872221 L4.13866864,9.85531699 C6.12946613,5.65998626 10.3562875,2.98428281 15,2.9797126 Z M18.5059172,15 C18.503726,16.9353289 16.9353289,18.503726 15,18.5059172 C13.063732,18.5059172 11.4940828,16.936268 11.4940828,15 C11.4940828,13.063732 13.063732,11.4940828 15,11.4940828 C16.936268,11.4940828 18.5059172,13.063732 18.5059172,15 Z M3.74350169,10.7888926 L11.1089328,12.7376817 C10.7841346,13.2899263 10.5817305,13.9054652 10.5154311,14.5427282 L3.41795224,11.79459 C3.512612,11.4530135 3.61829036,11.1174472 3.74350169,10.7888926 Z M2.9797126,15 C2.98052647,14.2545544 3.05058221,13.5107365 3.18906593,12.7782502 L10.5424768,15.6270583 C10.752644,17.1082457 11.6833398,18.3889698 13.0271703,19.0463292 L13.4634066,26.9201183 C7.47242022,26.1410535 2.98735049,21.0413839 2.9797126,15 Z M15.5293935,27.0067646 C15.3540976,27.0142773 15.1788018,27.0202874 15.0005008,27.0202874 C14.8221999,27.0202874 14.6464032,27.0142773 14.4711074,27.0067646 L14.0483939,19.4044336 C14.675327,19.5421661 15.324673,19.5421661 15.9516061,19.4044336 L15.5293935,27.0067646 Z M17.2487954,26.8072403 C17.0125843,26.8520034 16.7750584,26.8896294 16.5365934,26.9200557 L16.5365934,26.9185532 L16.9738314,19.0462666 C18.3172863,18.3886568 19.2475439,17.1079953 19.4575232,15.6269957 L26.8099324,12.7781876 C28.0437022,19.2924947 23.7630399,25.5734705 17.2487954,26.8072403 Z" id="Shape"></path>
                    <path d="M15,12.5274725 C13.6344849,12.5274725 12.5274725,13.6344849 12.5274725,15 C12.5274725,16.3655151 13.6344849,17.4725275 15,17.4725275 C16.3655151,17.4725275 17.4725275,16.3655151 17.4725275,15 C17.4709203,13.6351648 16.3648352,12.5290797 15,12.5274725 Z M15,16.4835165 C14.1806662,16.4835165 13.5164835,15.8193338 13.5164835,15 C13.5164835,14.1806662 14.1806662,13.5164835 15,13.5164835 C15.8193338,13.5164835 16.4835165,14.1806662 16.4835165,15 C16.4835165,15.8193338 15.8193338,16.4835165 15,16.4835165 Z" id="Shape"></path>
                </g>
            </g>
        </g>
    </g>
</svg>