<?xml version="1.0" encoding="UTF-8" standalone="no"?>
<svg width="20px" height="20px" viewBox="0 0 20 20" version="1.1" xmlns="http://www.w3.org/2000/svg" xmlns:xlink="http://www.w3.org/1999/xlink">
    <!-- Generator: Sketch 49.3 (51167) - http://www.bohemiancoding.com/sketch -->
    <title>bell</title>
    <desc>Created with Sketch.</desc>
    <defs></defs>
    <g id="Symbols" stroke="none" stroke-width="1" fill="none" fill-rule="evenodd">
        <g id="header/notifications" transform="translate(-2.000000, -4.000000)" fill="#999999">
            <path d="M13.9149488,21.5127706 C13.5109555,22.4078828 12.6194736,23.0156878 11.5993777,23.0156878 C10.585505,23.0156878 9.68779982,22.4068456 9.28225075,21.5127706 L13.9149488,21.5127706 Z M10.5357189,5.95980812 C10.5891352,5.41475431 11.044989,4.98586802 11.6035265,4.98586802 C12.1636199,4.98586802 12.6199922,5.41475431 12.6739271,5.96032672 C12.3243874,5.90483599 11.9686244,5.86749643 11.6035265,5.86749643 C11.2394658,5.86749643 10.8842214,5.90431739 10.5357189,5.95980812 Z M5.33514845,18.3586153 L6.90444704,18.3586153 L6.90444704,17.3722287 L5.79255802,17.3722287 L5.79255802,12.6648515 C5.79255802,9.45935434 8.39958512,6.85180863 11.6035265,6.85180863 C14.8090237,6.85180863 17.4165694,9.45935434 17.4165694,12.6648515 L17.4165694,17.3722287 L9.1417088,17.3722287 L9.1417088,18.3586153 L17.873979,18.3586153 C19.022689,18.5121224 19.9546221,19.3932322 20.1734734,20.526384 L3.0361727,20.526384 C3.25450538,19.3911578 4.18643848,18.510048 5.33514845,18.3586153 Z M21.2091274,21.5127706 L21.207053,21.0169843 C21.1966809,19.3424089 20.0215221,17.8550499 18.402956,17.4557241 L18.402956,12.6648515 C18.402956,9.63723584 16.4120316,7.0680669 13.6706859,6.19110593 L13.6706859,6.06508492 C13.6706859,4.92622845 12.7434202,4 11.6035265,4 C10.46467,4 9.53844159,4.92622845 9.53844159,6.06508492 L9.53844159,6.19058732 C6.79761442,7.06702969 4.8061714,9.63671723 4.8061714,12.6648515 L4.8061714,17.4557241 C3.18604953,17.8555685 2.0108907,19.3429275 2.00259302,21.0169843 L2,21.5127706 L8.23622456,21.5127706 C8.68948528,22.969532 10.0451186,24 11.5993777,24 C13.162453,24 14.5092701,22.9731622 14.9630494,21.5127706 L21.2091274,21.5127706 Z" id="bell"></path>
        </g>
    </g>
</svg>