<?xml version="1.0" encoding="UTF-8" standalone="no"?>
<svg width="40px" height="20px" viewBox="0 0 40 20" version="1.1" xmlns="http://www.w3.org/2000/svg" xmlns:xlink="http://www.w3.org/1999/xlink">
    <!-- Generator: Sketch 49.3 (51167) - http://www.bohemiancoding.com/sketch -->
    <title>car</title>
    <desc>Created with Sketch.</desc>
    <defs></defs>
    <g id="Page-1" stroke="none" stroke-width="1" fill="none" fill-rule="evenodd">
        <g id="Dashboard_HP" transform="translate(-77.000000, -191.000000)" fill="#676D7E">
            <g id="car" transform="translate(77.000000, 191.000000)">
                <path d="M33.1818182,12.7273239 C31.8285114,12.7273239 30.7272574,13.950928 30.7272574,15.4545881 C30.7272574,16.9581629 31.8285114,18.1818523 33.1818182,18.1818523 C34.5351249,18.1818523 35.636379,16.9581629 35.636379,15.4545881 C35.636379,13.950928 34.5351249,12.7273239 33.1818182,12.7273239 Z M33.1818182,20 C30.9269206,20 29.0909091,17.9600064 29.0909091,15.4545881 C29.0909091,12.9490845 30.9269206,10.9090909 33.1818182,10.9090909 C35.4367158,10.9090909 37.2727273,12.9490845 37.2727273,15.4545881 C37.2727273,17.9600064 35.4367158,20 33.1818182,20 Z" id="Fill-2"></path>
                <path d="M7.72727273,12.7273239 C6.37396597,12.7273239 5.27271193,13.950928 5.27271193,15.4545881 C5.27271193,16.9581629 6.37396597,18.1818523 7.72727273,18.1818523 C9.08057948,18.1818523 10.1818335,16.9581629 10.1818335,15.4545881 C10.1818335,13.950928 9.08057948,12.7273239 7.72727273,12.7273239 Z M7.72727273,20 C5.47237511,20 3.63636364,17.9600064 3.63636364,15.4545881 C3.63636364,12.9490845 5.47237511,10.9090909 7.72727273,10.9090909 C9.98217034,10.9090909 11.8181818,12.9490845 11.8181818,15.4545881 C11.8181818,17.9600064 9.98217034,20 7.72727273,20 Z" id="Fill-1"></path>
                <path d="M35.8333594,16.3636364 C35.3733594,16.3636364 35,15.9971415 35,15.5455044 C35,15.0938673 35.3733594,14.7272957 35.8333594,14.7272957 C37.0766406,14.7272957 38.3333594,13.8845416 38.3333594,12.2727464 C38.3333594,10.6281984 37.445,8.18185653 35,8.18185653 L33.5916406,8.18185653 C32.6983594,8.18185653 31.8216406,7.87910322 31.1266406,7.33089498 L24.56,2.17473067 C24.1166406,1.82779547 23.5633594,1.63634062 22.9966406,1.63634062 L10.95,1.63634062 C10.1133594,1.63634062 9.335,2.04548331 8.87,2.72945881 L7.45164062,4.81912401 C6.71664063,5.90073649 5.49,6.5454392 4.16664062,6.5454392 C2.78835938,6.5454392 1.66664063,7.64676479 1.66664063,8.99998849 L1.66664063,12.2727464 C1.66664063,13.6260469 2.78835938,14.7272957 4.16664062,14.7272957 C4.62664063,14.7272957 5,15.0938673 5,15.5455044 C5,15.9971415 4.62664063,16.3636364 4.16664062,16.3636364 C1.87,16.3636364 0,14.5276335 0,12.2727464 L0,8.99998849 C0,6.74510145 1.87,4.90909858 4.16664062,4.90909858 C4.93,4.90909858 5.64,4.53600709 6.065,3.91255157 L7.48335938,1.82127557 C8.25835938,0.680753905 9.55335937,0 10.95,0 L22.9966406,0 C23.9383594,0 24.8633594,0.319091408 25.6,0.896754242 L32.1666406,6.05452935 C32.57,6.37200996 33.075,6.5454392 33.59,6.5454392 L35,6.5454392 C38.2483594,6.5454392 40,9.49580745 40,12.2727464 C40,14.6045683 38.2083594,16.3636364 35.8333594,16.3636364" id="Fill-4"></path>
                <path d="M29.1666406,16.3636364 L10.8333594,16.3636364 C10.3733594,16.3636364 10,16.1600252 10,15.9091122 C10,15.6581992 10.3733594,15.4545455 10.8333594,15.4545455 L29.1666406,15.4545455 C29.6266406,15.4545455 30,15.6581992 30,15.9091122 C30,16.1600252 29.6266406,16.3636364 29.1666406,16.3636364" id="Fill-6"></path>
                <path d="M28.2575497,9.09090909 L19.9241903,9.09090909 C19.4641903,9.09090909 19.0909091,8.68360795 19.0909091,8.18178977 L19.0909091,4.54539773 C19.0909091,4.04357955 19.4641903,3.63636364 19.9241903,3.63636364 C20.3841903,3.63636364 20.7575497,4.04357955 20.7575497,4.54539773 L20.7575497,7.27267045 L28.2575497,7.27267045 C28.7175497,7.27267045 29.0909091,7.67997159 29.0909091,8.18178977 C29.0909091,8.68360795 28.7175497,9.09090909 28.2575497,9.09090909" id="Fill-7"></path>
                <path d="M16.454581,8.18181818 L9.90895054,8.18181818 C9.62590537,8.18181818 9.36242024,8.04544596 9.21353388,7.82270467 C9.06457081,7.59996338 9.04984326,7.31961903 9.17748205,7.08629469 L10.813928,4.05577727 C11.0168154,3.67997236 11.506123,3.52996292 11.9118978,3.71633829 C12.3161385,3.90427625 12.4797524,4.35885032 12.2784758,4.73309262 L11.2328195,6.66652396 L16.454581,6.66652396 C16.906226,6.66652396 17.2727273,7.00596293 17.2727273,7.42417107 C17.2727273,7.84237921 16.906226,8.18181818 16.454581,8.18181818" id="Fill-8"></path>
                <path d="M22.7272514,10.9090909 L20.9091122,10.9090909 C20.407298,10.9090909 20,10.7054798 20,10.4545668 C20,10.2036538 20.407298,10 20.9091122,10 L22.7272514,10 C23.2290657,10 23.6363636,10.2036538 23.6363636,10.4545668 C23.6363636,10.7054798 23.2290657,10.9090909 22.7272514,10.9090909" id="Fill-9"></path>
            </g>
        </g>
    </g>
</svg>