<?xml version="1.0" encoding="UTF-8" standalone="no"?>
<svg width="26px" height="23px" viewBox="0 0 26 23" version="1.1" xmlns="http://www.w3.org/2000/svg" xmlns:xlink="http://www.w3.org/1999/xlink">
    <!-- Generator: Sketch 49.3 (51167) - http://www.bohemiancoding.com/sketch -->
    <title>warning</title>
    <desc>Created with Sketch.</desc>
    <defs></defs>
    <g id="Page-1" stroke="none" stroke-width="1" fill="none" fill-rule="evenodd">
        <g id="Dashboard_HP" transform="translate(-1011.000000, -145.000000)" fill="#DE7F1B" fill-rule="nonzero">
            <g id="warning" transform="translate(1011.000000, 145.000000)">
                <path d="M12.7234043,7.82978723 C12.2830293,7.82978723 11.9893617,8.12763725 11.9893617,8.57449786 L11.9893617,13.9361404 C11.9893617,14.3829155 12.282945,14.6808511 12.7234043,14.6808511 C13.1637792,14.6808511 13.4574468,14.3830011 13.4574468,13.9361404 L13.4574468,8.57449786 C13.4574468,8.12763725 13.1637792,7.82978723 12.7234043,7.82978723 Z" id="Shape"></path>
                <path d="M13.0769013,17.0927052 C12.8050359,16.8130699 12.3971598,16.8130699 12.1252944,17.0927052 C11.9893617,17.2325228 11.9893617,17.5121581 11.9893617,17.6519757 C11.9893617,17.9316109 11.9893617,18.0714286 12.1252944,18.2112462 C12.2612271,18.3510638 12.5330924,18.3510638 12.6690251,18.3510638 C12.8049578,18.3510638 13.0768232,18.3510638 12.9408905,18.2112462 C13.0768232,18.0714286 13.2127559,17.7917933 13.2127559,17.6519757 C13.2129121,17.3723404 13.2129121,17.2325228 13.0769013,17.0927052 Z" id="Shape"></path>
                <path d="M24.644535,17.2129269 L15.8721543,1.92899595 C15.2774572,0.74188872 13.9393032,0 12.6010638,0 C11.2629099,0 10.0734302,0.741973995 9.32997332,1.92899595 L0.557592637,17.2129269 C-0.185864212,18.4000341 -0.185864212,19.8838968 0.557592637,21.0710041 C1.15228976,22.2581113 2.49044373,23 3.82868315,23 L21.3734445,23 C22.8602728,23 24.0497525,22.258026 24.644535,21.0710041 C25.3879919,19.8838968 25.3879919,18.4000341 24.644535,17.2129269 Z M23.4550553,20.4774931 C23.1577068,21.2194671 22.4142499,21.6646003 21.5222042,21.6646003 L3.82868315,21.6646003 C3.0852263,21.6646003 2.3418549,21.2194671 1.89583205,20.4774931 C1.44980921,19.7355191 1.44980921,18.8452526 1.89583205,18.1032786 L10.6682127,2.81926241 C10.9655613,2.07728842 11.7090181,1.63215518 12.6010638,1.63215518 C13.493195,1.63215518 14.2365664,2.07728842 14.6826747,2.81926241 L23.4550553,18.1031933 C23.9011636,18.8451673 23.9011636,19.7355191 23.4550553,20.4774931 Z" id="Shape"></path>
            </g>
        </g>
    </g>
</svg>